<?xml version="1.0" standalone="no"?>
<!DOCTYPE svg PUBLIC "-//W3C//DTD SVG 20010904//EN"
 "http://www.w3.org/TR/2001/REC-SVG-20010904/DTD/svg10.dtd">
<svg version="1.0" xmlns="http://www.w3.org/2000/svg"
 width="834.000000pt" height="730.000000pt" viewBox="0 0 834.000000 730.000000"
 preserveAspectRatio="xMidYMid meet">

<g transform="translate(0.000000,730.000000) scale(0.100000,-0.100000)"
fill="#000000" stroke="none">
<path d="M3625 7284 c-519 -26 -797 -71 -1140 -181 -777 -250 -1441 -790
-1927 -1568 -283 -452 -452 -914 -525 -1435 -22 -157 -25 -658 -5 -820 84
-681 288 -1205 661 -1695 97 -127 345 -378 481 -486 286 -226 654 -418 1000
-522 619 -187 1264 -177 1884 28 265 88 504 193 941 414 307 155 445 210 645
253 90 19 135 22 315 22 181 1 224 -3 312 -22 358 -78 685 -257 1039 -566 196
-171 413 -415 539 -606 58 -88 61 -91 100 -88 25 3 31 8 37 38 4 19 28 136 52
260 25 124 64 313 86 420 226 1080 276 2128 140 2932 -258 1514 -1010 2574
-2265 3188 -497 244 -952 366 -1560 420 -122 11 -682 21 -810 14z m-2145
-1834 l0 -239 53 27 c45 22 65 26 142 27 50 0 108 -6 131 -12 62 -19 129 -69
164 -121 56 -85 60 -114 60 -464 l0 -318 -160 0 -159 0 -3 281 -3 281 -33 29
c-36 32 -73 37 -126 15 -59 -25 -66 -59 -66 -351 l0 -255 -160 0 -160 0 0 670
0 670 160 0 160 0 0 -240z m2110 -430 l0 -670 -160 0 -160 0 0 670 0 670 160
0 160 0 0 -670z m530 0 l0 -670 -160 0 -160 0 0 670 0 670 160 0 160 0 0 -670z
m-1337 235 c83 -22 146 -57 198 -112 84 -86 119 -188 119 -340 l0 -93 -284 0
-284 0 8 -32 c13 -55 21 -68 51 -83 57 -30 144 -14 173 31 16 24 35 24 254 8
83 -7 85 -10 48 -89 -114 -245 -536 -292 -744 -83 -29 29 -64 76 -78 103 -28
58 -54 170 -54 235 0 67 25 171 56 234 33 67 125 159 187 186 112 50 244 63
350 35z m2171 -14 c84 -30 135 -62 189 -120 100 -107 144 -267 114 -416 -22
-104 -58 -174 -127 -239 -96 -91 -211 -136 -350 -136 -293 1 -490 190 -490
470 0 285 213 480 510 466 60 -3 117 -12 154 -25z m-256 -1903 l-3 -673 -155
0 -155 0 -3 673 -2 672 160 0 160 0 -2 -672z m1140 0 l-3 -673 -150 0 c-146 0
-150 1 -153 22 l-3 21 -57 -26 c-51 -24 -68 -27 -173 -27 -113 0 -116 1 -191
38 -154 76 -238 224 -238 422 0 139 43 256 126 345 112 120 307 160 467 96
l57 -24 0 239 0 239 160 0 160 0 -2 -672z m-2634 222 c197 -61 316 -229 316
-445 0 -136 -38 -233 -127 -326 -98 -103 -220 -145 -394 -137 -119 6 -182 26
-268 85 -233 161 -248 556 -29 736 57 47 158 94 228 106 75 13 196 5 274 -19z
m1031 -140 l0 -155 -51 -6 c-55 -7 -87 -20 -122 -53 -45 -40 -47 -52 -52 -301
l-5 -240 -155 0 -155 0 -3 453 -2 452 155 0 155 0 0 -37 c0 -34 1 -35 18 -21
42 37 134 68 192 65 l25 -2 0 -155z m-2807 88 c11 -35 39 -129 63 -210 24 -82
46 -148 49 -148 3 0 37 95 75 210 l69 210 112 0 112 0 72 -215 c39 -118 73
-215 74 -215 2 0 31 97 66 215 l64 215 178 0 c98 0 178 -1 178 -3 0 -1 -78
-205 -174 -452 l-173 -450 -128 0 -127 0 -66 177 c-37 98 -70 178 -73 178 -3
0 -34 -75 -69 -167 -35 -93 -68 -174 -73 -180 -7 -9 -45 -13 -127 -13 -82 0
-121 4 -127 13 -12 14 -343 872 -343 887 0 6 65 10 175 10 l174 0 19 -62z
m5687 -753 l0 -90 -515 0 -515 0 -3 79 c-2 44 -1 85 2 93 5 11 96 13 518 11
l513 -3 0 -90z"/>
<path d="M2603 5020 c-27 -11 -63 -66 -63 -97 0 -23 2 -23 121 -23 135 0 127
-6 97 73 -19 48 -95 71 -155 47z"/>
<path d="M4689 4967 c-51 -33 -74 -88 -74 -172 1 -120 58 -185 163 -185 71 0
113 26 143 86 28 60 24 173 -10 227 -41 67 -154 90 -222 44z"/>
<path d="M5280 3292 c-109 -59 -115 -283 -10 -345 79 -47 184 -20 224 58 29
55 29 176 1 224 -30 51 -67 74 -127 78 -39 3 -62 -1 -88 -15z"/>
<path d="M2964 3296 c-37 -17 -69 -55 -85 -103 -16 -48 -6 -154 18 -195 26
-47 96 -81 151 -74 101 13 146 73 146 191 1 82 -21 134 -67 167 -37 27 -120
34 -163 14z"/>
</g>
</svg>
