<svg width="834" height="730" viewBox="0 0 834 730" fill="none" xmlns="http://www.w3.org/2000/svg">
<path d="M362.5 1.59996C310.6 4.19996 282.8 8.69996 248.5 19.7C170.8 44.7 104.4 98.7 55.7999 176.5C27.4999 221.7 10.5999 267.9 3.29994 320C1.09994 335.7 0.799936 385.8 2.79994 402C11.1999 470.1 31.5999 522.5 68.8999 571.5C78.5999 584.2 103.4 609.3 117 620.1C145.6 642.7 182.4 661.9 217 672.3C278.9 691 343.4 690 405.4 669.5C431.9 660.7 455.8 650.2 499.5 628.1C530.2 612.6 544 607.1 564 602.8C573 600.9 577.5 600.6 595.5 600.6C613.6 600.5 617.9 600.9 626.7 602.8C662.5 610.6 695.2 628.5 730.6 659.4C750.2 676.5 771.9 700.9 784.5 720C790.3 728.8 790.6 729.1 794.5 728.8C797 728.5 797.6 728 798.2 725C798.6 723.1 801 711.4 803.4 699C805.9 686.6 809.8 667.7 812 657C834.6 549 839.6 444.2 826 363.8C800.2 212.4 725 106.4 599.5 45C549.8 20.6 504.3 8.39996 443.5 2.99996C431.3 1.89996 375.3 0.899965 362.5 1.59996ZM148 185V208.9L153.3 206.2C157.8 204 159.8 203.6 167.5 203.5C172.5 203.5 178.3 204.1 180.6 204.7C186.8 206.6 193.5 211.6 197 216.8C202.6 225.3 203 228.2 203 263.2V295H187H171.1L170.8 266.9L170.5 238.8L167.2 235.9C163.6 232.7 159.9 232.2 154.6 234.4C148.7 236.9 148 240.3 148 269.5V295H132H116V228V161H132H148V185ZM359 228V295H343H327V228V161H343H359V228ZM412 228V295H396H380V228V161H396H412V228ZM278.3 204.5C286.6 206.7 292.9 210.2 298.1 215.7C306.5 224.3 310 234.5 310 249.7V259H281.6H253.2L254 262.2C255.3 267.7 256.1 269 259.1 270.5C264.8 273.5 273.5 271.9 276.4 267.4C278 265 279.9 265 301.8 266.6C310.1 267.3 310.3 267.6 306.6 275.5C295.2 300 253 304.7 232.2 283.8C229.3 280.9 225.8 276.2 224.4 273.5C221.6 267.7 219 256.5 219 250C219 243.3 221.5 232.9 224.6 226.6C227.9 219.9 237.1 210.7 243.3 208C254.5 203 267.7 201.7 278.3 204.5ZM495.4 205.9C503.8 208.9 508.9 212.1 514.3 217.9C524.3 228.6 528.7 244.6 525.7 259.5C523.5 269.9 519.9 276.9 513 283.4C503.4 292.5 491.9 297 478 297C448.7 296.9 429 278 429 250C429 221.5 450.3 202 480 203.4C486 203.7 491.7 204.6 495.4 205.9ZM469.8 396.2L469.5 463.5H454H438.5L438.2 396.2L438 329H454H470L469.8 396.2ZM583.8 396.2L583.5 463.5H568.5C553.9 463.5 553.5 463.4 553.2 461.3L552.9 459.2L547.2 461.8C542.1 464.2 540.4 464.5 529.9 464.5C518.6 464.5 518.3 464.4 510.8 460.7C495.4 453.1 487 438.3 487 418.5C487 404.6 491.3 392.9 499.6 384C510.8 372 530.3 368 546.3 374.4L552 376.8V352.9V329H568H584L583.8 396.2ZM320.4 374C340.1 380.1 352 396.9 352 418.5C352 432.1 348.2 441.8 339.3 451.1C329.5 461.4 317.3 465.6 299.9 464.8C288 464.2 281.7 462.2 273.1 456.3C249.8 440.2 248.3 400.7 270.2 382.7C275.9 378 286 373.3 293 372.1C300.5 370.8 312.6 371.6 320.4 374ZM423.5 388V403.5L418.4 404.1C412.9 404.8 409.7 406.1 406.2 409.4C401.7 413.4 401.5 414.6 401 439.5L400.5 463.5H385H369.5L369.2 418.2L369 373H384.5H400V376.7C400 380.1 400.1 380.2 401.8 378.8C406 375.1 415.2 372 421 372.3L423.5 372.5V388ZM142.8 379.2C143.9 382.7 146.7 392.1 149.1 400.2C151.5 408.4 153.7 415 154 415C154.3 415 157.7 405.5 161.5 394L168.4 373H179.6H190.8L198 394.5C201.9 406.3 205.3 416 205.4 416C205.6 416 208.5 406.3 212 394.5L218.4 373H236.2C246 373 254 373.1 254 373.3C254 373.4 246.2 393.8 236.6 418.5L219.3 463.5H206.5H193.8L187.2 445.8C183.5 436 180.2 428 179.9 428C179.6 428 176.5 435.5 173 444.7C169.5 454 166.2 462.1 165.7 462.7C165 463.6 161.2 464 153 464C144.8 464 140.9 463.6 140.3 462.7C139.1 461.3 106 375.5 106 374C106 373.4 112.5 373 123.5 373H140.9L142.8 379.2ZM711.5 454.5V463.5H660H608.5L608.2 455.6C608 451.2 608.1 447.1 608.4 446.3C608.9 445.2 618 445 660.2 445.2L711.5 445.5V454.5Z" fill="#554BFA"/>
<ellipse cx="410" cy="314" rx="374" ry="262" fill="#554BFA"/>
<path d="M543.333 439V405.667C543.333 387.986 536.31 371.029 523.807 358.526C511.305 346.024 494.348 339 476.667 339H343.333C325.652 339 308.695 346.024 296.193 358.526C283.691 371.029 276.667 387.986 276.667 405.667V439" stroke="white" stroke-width="5" stroke-linecap="round" stroke-linejoin="round"/>
<path d="M410 272.333C446.819 272.333 476.667 242.486 476.667 205.667C476.667 168.848 446.819 139 410 139C373.181 139 343.333 168.848 343.333 205.667C343.333 242.486 373.181 272.333 410 272.333Z" stroke="white" stroke-width="5" stroke-linecap="round" stroke-linejoin="round"/>
<circle cx="410" cy="314" r="222.5" stroke="white" stroke-width="5"/>
</svg>
